PathFileType	4	(X/Y/Z)	C:/Users/beibeiliu/ov580/test_trc/User1\sequence.12_training_dense_right.trc
DataRate	CameraRate	NumFrames	NumMarkers	Units	OrigDataRate	OrigDataStartFrame	OrigNumFrames
120	120	20	19	mm	120	267	304
Frame#	Time	ThumbCMC			ThumbMCP			ThumbIP			ThumbTip			IndexMCP			IndexPIP			IndexTip			MiddleMCP			MiddlePIP			MiddleTip			RingMCP			RingPIP			RingTip			PinkyMCP			PinkyPIP			PinkyTip			BackHand1			BackHand2			BackHand3	
		X0	Y0	Z0	X1	Y1	Z1	X2	Y2	Z2	X3	Y3	Z3	X4	Y4	Z4	X5	Y5	Z5	X6	Y6	Z6	X7	Y7	Z7	X8	Y8	Z8	X9	Y9	Z9	X10	Y10	Z10	X11	Y11	Z11	X12	Y12	Z12	X13	Y13	Z13	X14	Y14	Z14	X15	Y15	Z15	X16	Y16	Z16	X17	Y17	Z17	X18	Y18	Z18	
266	2.21667	108.167	48.8334	22.8572	99.1513	20.2926	12.4693	91.2124	1.32091	-5.68447	85.3386	-24.5174	-20.5377	135.07	60.9168	-50.2019	132.179	53.7928	-85.6706	135.777	29.778	-102.755	168.715	68.0225	-55.8359	175.147	63.3442	-87.92	179.097	39.9772	-111.469	186.999	60.1548	-45.3269	202.644	51.5961	-71.4329	203.885	25.8998	-91.3177	207.265	36.9505	-21.8769	221.494	18.6335	-37.6761	217.99	-1.71933	-60.0784	180.064	68.6625	4.36418	175.851	76.7093	33.987	143.848	74.6241	14.7004	
267	2.225	111.753	48.5304	28.2199	98.2516	18.0443	14.7032	89.2469	-3.04525	-0.582865	87.3659	-26.757	-12.3533	128.94	53.2288	-50.9678	134.923	45.0393	-81.5625	135.839	15.6314	-101.755	164.665	60.3824	-55.7643	175.459	52.1292	-86.3662	180.73	28.4444	-108.325	188.406	53.7106	-44.6567	197.496	41.3812	-74.1521	200.994	13.3683	-89.8303	207.417	30.8727	-19.9746	219.384	12.755	-33.6246	216.288	-13.1604	-51.8146	179.684	65.4384	1.99176	175.111	78.5292	33.6267	141.7	72.4557	10.4696	
268	2.23333	107.912	47.9687	30.5189	93.6913	15.362	17.9713	88.5611	-3.86089	5.27363	83.6886	-30.0759	-10.0638	133.027	49.3285	-53.5305	130.156	37.8089	-82.2232	133.102	12.51	-98.4344	166.333	55.0464	-54.2907	171.7	47.23	-84.2205	183.343	18.4547	-106.883	186.943	49.8374	-44.9496	196.599	36.2473	-73.1062	199.725	9.98784	-86.2318	209.541	27.5332	-17.1682	218.433	6.03547	-33.8389	219.156	-18.1481	-47.1095	177.384	62.3229	2.96311	175.993	75.3873	37.4123	139.248	71.5789	16.1646	
269	2.24167	111.159	45.7402	28.6037	96.0391	16.4379	18.7301	86.2059	-5.36894	5.55879	82.5756	-29.0434	-6.17576	128.529	46.7934	-50.1702	132.465	35.5946	-81.812	135.864	12.7465	-97.2528	162.314	52.8503	-52.1642	175.292	43.2639	-85.4353	183.084	16.5131	-106.637	187.696	48.069	-39.869	196.789	37.2607	-69.5594	200.585	11.8151	-84.8859	211.258	25.9581	-15.453	218.666	6.17491	-30.6897	219.544	-18.0846	-44.2937	176.988	63.1882	3.8788	173.699	76.5111	33.87	138.837	71.0508	14.3782	
270	2.25	105.477	45.7399	29.2338	92.5442	16.4781	22.5942	87.3578	-3.68606	8.41299	83.2746	-27.1431	-4.57405	131.097	46.156	-49.9216	132.335	35.4417	-80.8326	134.28	15.6242	-99.1202	161.54	52.7288	-53.2508	172.715	44.7687	-82.9704	177.463	19.097	-109.656	187.067	47.338	-42.1636	196.145	35.6022	-73.1849	202.057	11.6684	-89.7041	209.42	27.9309	-15.3809	219.814	9.36645	-29.0332	218.654	-12.6993	-47.2522	175.232	62.0057	8.34328	170.287	77.7277	37.645	139.716	72.4919	17.0476	
271	2.25833	105.719	45.523	30.9816	91.3318	15.9085	22.504	81.7522	-4.37181	9.33298	79.4499	-26.6438	-5.23566	128.014	45.5643	-48.7041	128.277	38.5308	-78.9865	132.92	17.8945	-103.821	161.373	52.9193	-52.4309	171.862	47.3921	-82.5657	179.244	26.6769	-107.565	185.429	48.7842	-40.1091	199.828	39.5955	-70.3392	203.677	20.6486	-90.3691	207.091	29.4344	-17.4882	220.363	10.1959	-32.138	223.848	-5.69503	-50.5204	173.735	64.1363	3.3155	174.091	75.9824	39.8392	137.293	72.3071	15.7768	
272	2.26667	106.498	44.7785	28.5368	94.1858	16.6859	20.7203	84.063	-3.82299	5.65017	77.154	-24.8642	-1.90852	125.523	46.5861	-47.3249	129.165	41.5359	-78.3236	130.24	26.9322	-101.375	164.263	55.2532	-53.8107	170.368	49.6952	-84.4169	178.525	31.5093	-113.537	182.883	50.4305	-40.2082	199.296	44.3134	-71.7	203.249	28.8813	-90.9027	209.81	28.7905	-19.1909	221.923	13.8784	-32.3998	229.514	-2.49218	-50.5677	173.05	62.6387	5.1192	171.834	78.1724	35.6788	141.666	71.4315	16.3233	
273	2.275	105.616	47.5629	30.4892	94.5168	17.6683	18.8957	81.0159	-2.51777	10.1604	71.9658	-24.4976	-1.50973	126.525	49.3779	-47.989	125.536	45.1724	-77.049	130.327	31.4901	-102.406	162.212	57.1803	-51.8645	168.303	53.499	-86.0091	175.734	42.006	-111.347	185.788	51.8775	-43.5689	197.051	47.579	-70.9711	201.718	34.3043	-96.1261	208.681	32.1616	-16.8624	217.605	20.4574	-33.474	229.001	7.64195	-50.4462	170.872	66.8404	7.11305	170.433	76.5934	34.0759	139.541	71.5551	12.0319	
274	2.28333	107.278	49.9395	31.8945	94.4914	21.0447	23.2674	78.9893	-2.90269	6.84924	74.2446	-23.2571	-1.16475	123.679	50.72	-52.0132	126.043	46.5595	-78.5368	124.506	36.4116	-103.35	158.988	58.7179	-56.7873	167.141	56.1245	-86.0743	172.444	47.3329	-114.915	186.44	53.9893	-46.3346	192.145	50.1051	-70.0948	203.285	36.2111	-95.5054	208.291	33.3838	-16.3837	220.167	20.1589	-33.4254	230.307	6.2084	-49.8434	171.316	68.4378	4.28245	173.759	81.1174	38.1228	140.579	72.501	13.2832	
275	2.29167	107.569	49.6903	29.4734	90.8794	19.5598	20.9282	83.9291	-0.307388	5.58904	73.1364	-22.1292	-2.26474	126.83	52.1401	-48.4097	123.601	47.9969	-79.8273	124.197	34.877	-106.994	161.866	59.9151	-53.9513	166.144	56.4963	-86.3436	173.757	45.5165	-111.8	184.83	54.5169	-40.995	196.33	48.776	-71.0685	199.541	34.359	-93.1174	208.984	32.0686	-21.0918	216.231	18.8458	-36.9544	226.976	5.28596	-52.9053	175.729	65.8824	1.54505	170.57	80.9108	35.4325	141.247	73.5995	14.9406	
276	2.3	108.381	51.39	32.2654	91.4247	21.1358	22.1315	80.2355	0.360104	7.82607	74.0665	-22.1123	-4.29446	125.79	54.4993	-47.3806	127.075	49.3209	-78.5789	124.081	31.9946	-105.807	157.518	60.5148	-52.0196	167.14	56.6334	-86.7241	175.139	41.8801	-110.695	183.617	55.1368	-46.7635	193.509	47.0079	-75.4077	198.955	29.8618	-91.6936	204.993	33.4355	-23.8753	214.326	17.0725	-38.8091	223.302	0.0721708	-54.8027	173.047	66.177	1.80687	174.61	79.2576	37.6542	141.555	74.3077	13.6243	
277	2.30833	109.757	50.2864	26.3017	95.1315	22.0704	17.3214	82.4332	0.273591	2.75373	79.8557	-19.667	-5.10969	126.664	56.3116	-51.1085	123.807	50.4158	-79.5805	127.24	26.8856	-105.174	160.225	62.5656	-53.0298	166.684	57.6728	-84.9361	176.088	33.071	-113.096	182.174	55.501	-47.3749	194.37	47.2327	-72.8429	194.717	22.6341	-94.3909	205.211	33.1756	-21.448	216.394	13.6081	-37.769	214.563	-6.36382	-55.1505	174.615	67.6983	2.40287	172.665	81.5941	36.6348	137.183	77.0489	13.041	
278	2.31667	106.178	50.6062	27.3122	94.8129	21.5414	15.4127	83.1316	0.693349	2.18073	80.3538	-22.4779	-10.4641	124.326	57.0928	-50.8848	124.689	48.5899	-82.2082	127.987	26.2347	-100.154	162.766	62.1089	-54.4636	165.591	56.7781	-85.4763	171.155	31.6915	-110.198	181.782	55.3823	-47.9646	192.779	44.7051	-74.8647	195.355	18.3848	-89.8533	205.03	33.698	-21.2951	215.78	14.8439	-35.769	213.268	-11.8218	-54.1757	174.253	67.4963	2.05353	175.417	82.1475	36.6129	137.053	76.5015	12.7694	
279	2.325	107.605	51.248	28.5958	93.8659	21.2877	18.3605	81.8654	1.05904	4.66146	81.4263	-21.1334	-8.00506	128.773	55.8132	-51.6199	127.551	46.0865	-82.7154	124.746	24.6353	-99.7687	162.103	61.1598	-53.8015	168.676	53.2943	-88.3421	172.191	29.1254	-108.277	182.217	55.0469	-46.2874	193.553	43.2498	-74.869	196.632	18.0475	-87.9462	207.677	31.8719	-19.4563	215.541	12.3465	-35.5408	210.817	-12.0704	-53.6998	176.864	69.0255	6.38192	171.517	81.7565	34.3227	139.538	77.7873	13.1143	
280	2.33333	107.084	50.9202	30.486	95.7639	22.2928	19.2475	85.5543	-0.525514	-0.126606	81.361	-23.8458	-10.7013	130.575	54.7038	-50.5997	126.562	45.3264	-83.847	125.232	19.7145	-100.358	163.486	61.6754	-57.5279	170.195	52.9206	-85.2557	173.623	24.0224	-109.005	182.662	53.9039	-47.8061	191.823	43.9102	-73.6758	197.645	14.2334	-87.3842	205.385	33.1485	-20.1007	215.806	10.5184	-36.1047	208.462	-14.1714	-51.7024	174.973	67.7012	1.86648	173.844	80.3778	34.4638	139.071	74.783	11.3128	
281	2.34167	108.171	51.43	27.9208	95.0571	20.6962	16.0865	87.3851	0.419601	-0.0183393	80.8119	-23.5594	-9.73933	130.041	54.1399	-49.776	125.884	45.5455	-81.707	129.192	21.6468	-99.2254	163.751	61.1316	-53.5274	166.848	51.6512	-89.4613	175.089	23.9704	-107.816	185.93	53.1997	-41.7115	193.754	41.7529	-74.7664	194.812	12.8394	-88.4837	205.77	32.1001	-20.3047	214.638	11.7686	-35.9739	212.958	-16.9259	-50.1098	174.77	66.2359	3.62792	172.403	79.5591	34.5939	138.826	75.8375	12.3439	
282	2.35	107.27	51.1298	27.3063	92.515	20.9241	18.1586	85.7658	1.12628	4.31027	82.3175	-22.108	-7.65021	126.188	53.6018	-53.104	129.572	44.9911	-82.1212	130.45	19.4687	-100.819	165.896	60.4716	-56.4278	169.984	50.5083	-88.8632	174.446	22.9976	-109.506	185.931	53.4448	-47.0074	194.675	41.6546	-74.1636	195.664	15.7908	-89.1021	206.555	32.7121	-19.8552	216.202	10.4963	-37.4107	212.502	-12.5658	-53.1768	177.579	68.6399	4.04668	171.724	80.8033	36.8916	138.576	76.7025	10.7123	
283	2.35833	109.423	50.353	28.0477	95.7118	19.5567	16.9161	88.1378	-0.612201	3.36552	84.2019	-22.171	-8.43963	127.496	53.4533	-48.8206	128.754	43.6862	-83.5944	127.773	21.2951	-103.316	163.169	59.479	-52.9894	171.615	51.2203	-86.4644	177.643	26.1462	-109.397	189.045	53.2776	-42.5797	197.418	42.3119	-73.9768	201.169	18.8821	-88.9106	208.926	32.5582	-17.1469	220.013	13.9872	-33.1179	217.821	-7.08383	-50.4164	176.783	66.6692	4.24179	176.626	80.289	36.6231	140.026	76.4418	13.0033	
284	2.36667	111.509	50.5358	29.2282	95.4856	19.5421	18.6296	86.3016	1.36407	7.4796	78.8287	-24.6822	-6.53337	127.077	52.2616	-47.968	126.434	46.4684	-80.8736	126.545	26.9052	-104.642	163.093	60.1433	-54.0295	169.621	53.9879	-87.827	175.553	31.9465	-113.144	187.88	54.8161	-44.5328	198.172	45.9956	-70.7297	201.548	22.429	-92.6131	207.44	32.4378	-21.961	217.133	15.5218	-37.6137	221.862	-1.96192	-51.698	179.037	66.5721	4.2935	174.863	82.4729	37.7203	143.731	77.1461	14.5424	
285	2.375	111.766	49.3868	26.8392	99.1254	19.4157	18.3029	86.2568	-0.0694376	7.55274	79.7016	-22.3174	-3.65727	126.96	51.8742	-49.0971	129.688	46.463	-79.7635	127.755	33.7334	-104.401	160.616	60.1801	-52.5782	168.004	55.3977	-86.7498	177.599	40.4936	-112.367	188.717	54.5085	-44.7326	196.303	49.647	-70.2688	206.118	29.073	-92.6167	211.316	33.253	-20.9572	220.187	18.4445	-36.6409	228.679	5.35576	-51.7423	174.568	69.9577	4.74998	174.058	80.9992	32.8935	140.172	76.1779	15.8219	
